<?xml version="1.0" encoding="utf-8"?>
<!-- Generator: Adobe Illustrator 27.8.1, SVG Export Plug-In . SVG Version: 6.00 Build 0)  -->
<svg version="1.1" id="b" xmlns="http://www.w3.org/2000/svg" xmlns:xlink="http://www.w3.org/1999/xlink" x="0px" y="0px"
	 viewBox="0 0 344.7 268.3" style="enable-background:new 0 0 344.7 268.3;" xml:space="preserve">
<style type="text/css">
	.st0{fill:#FFFFFF;}
	.st1{fill:url(#SVGID_1_);}
	.st2{fill:url(#SVGID_00000054241337470824809010000011943109362763347109_);}
</style>
<g id="c">
	<path class="st0" d="M10,266.5c-1.9,0-3.7-0.5-5.4-1.6c-4.6-3-6-9.2-3-13.8l53.7-83.2c2-3.1,5.5-4.8,9.1-4.5
		c3.6,0.2,6.8,2.4,8.4,5.7l23.3,50l23.5-18.6c4-3.2,9.8-2.8,13.4,0.9l16.2,16.8l37.9-78.6c2.4-5,8.4-7.1,13.4-4.7
		c5,2.4,7.1,8.4,4.7,13.4L161,239.8c-1.4,2.9-4.2,5-7.4,5.5s-6.5-0.6-8.8-2.9L125,221.7l-26.3,20.8c-2.4,1.9-5.5,2.6-8.5,1.9
		c-3-0.7-5.5-2.7-6.8-5.5l-21-45.1l-43.9,68C16.5,264.9,13.3,266.5,10,266.5L10,266.5z"/>
	
		<linearGradient id="SVGID_1_" gradientUnits="userSpaceOnUse" x1="-1882.474" y1="-296.1507" x2="-1789.356" y2="-155.9737" gradientTransform="matrix(0.8314 -0.5557 0.5557 0.8314 1919.4734 -718.4579)">
		<stop  offset="5.540901e-07" style="stop-color:#7B2AFF"/>
		<stop  offset="1" style="stop-color:#3C0094"/>
	</linearGradient>
	<path class="st1" d="M298.4,41.8C269.6-1.4,211.2-13,168.1,15.9c-43.2,28.8-54.8,87.2-25.9,130.4c27,40.3,79.7,53.1,121.7,31
		l32.6,48.8c3.1,4.6,9.3,5.8,13.9,2.8c4.6-3.1,5.8-9.3,2.8-13.9l-32.6-48.8C317,135.8,325.4,82.1,298.4,41.8z"/>
	<path class="st0" d="M275.5,57.1c20.4,30.5,12.2,71.7-18.3,92.1s-71.7,12.2-92.1-18.3s-12.2-71.7,18.3-92.1S255.1,26.6,275.5,57.1z
		"/>
	<path class="st0" d="M342,237.1c4.9,7.3,2.9,17.3-4.4,22.2l-9.5,6.3c-7.3,4.9-17.3,2.9-22.2-4.4l-32.1-48
		c-4.9-7.3-2.9-17.3,4.4-22.2l9.5-6.3c7.3-4.9,17.3-2.9,22.2,4.4L342,237.1L342,237.1z"/>
	
		<linearGradient id="SVGID_00000016780792600527334670000000258372011057299860_" gradientUnits="userSpaceOnUse" x1="166.8601" y1="-21.9311" x2="236.1186" y2="-21.9311" gradientTransform="matrix(0.9981 6.150147e-02 -6.150147e-02 0.9981 18.1017 108.0286)">
		<stop  offset="5.540901e-07" style="stop-color:#7B2AFF"/>
		<stop  offset="1" style="stop-color:#3C0094"/>
	</linearGradient>
	<path style="fill:url(#SVGID_00000016780792600527334670000000258372011057299860_);" d="M205.9,133.5c-1.5,0-2.9-0.3-4.3-1
		c-5-2.4-7.1-8.4-4.7-13.4l15.9-32.9l-14.2,2.1c-5.5,0.8-10.5-3-11.3-8.4c-0.1-0.5-0.1-1-0.1-1.5c0-4.9,3.6-8.9,8.6-9.6l32.8-4.6
		l0,0c1.9-2,3.7-0.3,5.4,0.4c0.7,0.3,1.3,0.5,1.9,1l0,0v-0.1c1,0.7,1.9,1.6,2.6,2.8c0.1,0.2,0.2,0.3,0.3,0.5l15.1,27.4
		c2.7,4.8,0.9,10.9-3.9,13.6s-10.9,0.9-13.6-3.9l-5.8-10.5l-15.7,32.5C213.2,131.4,209.6,133.5,205.9,133.5L205.9,133.5z"/>
</g>
</svg>
