<?xml version="1.0" encoding="UTF-8"?><svg id="b" xmlns="http://www.w3.org/2000/svg" xmlns:xlink="http://www.w3.org/1999/xlink" viewBox="0 0 273.601 286.237"><defs><linearGradient id="d" x1="68.673" y1="250.964" x2="68.673" y2="168.674" gradientUnits="userSpaceOnUse"><stop offset="0" stop-color="#3db5ff"/><stop offset="1" stop-color="#7d85ff"/></linearGradient><linearGradient id="e" x1="185.103" y1="139.688" x2="189.845" y2="209.759" xlink:href="#d"/><linearGradient id="f" x1="190.443" y1="139.393" x2="194.757" y2="203.144" xlink:href="#d"/></defs><g id="c"><path d="m136.287,258.222c4.394,15.716-5.29,28.015-21.516,28.015H22.575c-16.229,0-25.91-12.299-21.516-28.015l20.208-72.461c4.394-15.714,21.265-28.761,37.493-28.761h19.825c16.228,0,33.097,13.047,37.491,28.761l20.211,72.461Z" style="fill:url(#d); stroke-width:0px;"/><path d="m77.181,182.083c-.695-4.956-4.524-9.012-8.509-9.012s-7.814,4.056-8.509,9.012l-6.015,42.884c-.695,4.956,2.099,11.297,6.211,14.087s7.852,5.075,8.314,5.075,4.202-2.284,8.314-5.075,6.906-9.131,6.211-14.087l-6.015-42.884Z" style="fill:#fff; stroke-width:0px;"/><path d="m77.775,166.023c0,3.877-3.964,7.048-8.808,7.048s-8.81-3.171-8.81-7.048,3.964-7.046,8.81-7.046,8.808,3.171,8.808,7.046Z" style="fill:#fff; stroke-width:0px;"/><path d="m125.899,107.919c0,31.607-25.622,57.227-57.227,57.227s-57.226-25.62-57.226-57.227,25.62-57.226,57.226-57.226,57.227,25.62,57.227,57.226Z" style="fill:#3db5ff; stroke-width:0px;"/><path d="m272.315,252.082c5.336,19.077-6.421,34.154-26.116,34.154h-111.927c-19.701,0-31.454-15.077-26.12-34.154l24.532-88.63c5.335-19.073,25.816-35.576,45.515-35.576h24.068c19.699,0,40.18,16.503,45.515,35.576l24.532,88.63Z" style="fill:#fff; stroke-width:0px;"/><path d="m200.23,158.55c-.695-4.956-5.194-9.012-9.997-9.012s-9.3,4.056-9.995,9.012l-7.768,55.377c-.695,4.956,2.124,11.313,6.266,14.125l2.958,2.009c4.142,2.812,7.985,5.112,8.539,5.112s4.4-2.3,8.541-5.112l2.956-2.009c4.142-2.812,6.961-9.169,6.266-14.125l-7.766-55.377Z" style="fill:url(#e); stroke-width:0px;"/><path d="m201.204,141.527c0,4.671-4.096,8.191-9.101,8.191h-3.031c-5.006,0-9.101-3.52-9.101-8.191s4.096-8.191,9.101-8.191h3.031c5.006,0,9.101,3.52,9.101,8.191Z" style="fill:url(#f); stroke-width:0px;"/><path d="m259.708,69.471c0,38.371-31.106,69.475-69.475,69.475s-69.473-31.104-69.473-69.475S151.864,0,190.233,0s69.475,31.104,69.475,69.471Z" style="fill:#fff; stroke-width:0px;"/></g></svg>