<?xml version="1.0" encoding="UTF-8"?><svg id="b" xmlns="http://www.w3.org/2000/svg" xmlns:xlink="http://www.w3.org/1999/xlink" viewBox="0 0 344.693 268.301"><defs><linearGradient id="d" x1="-2066.224" y1="73.43" x2="-1973.106" y2="213.607" gradientTransform="translate(1866.871 -1127.833) rotate(-33.758)" gradientUnits="userSpaceOnUse"><stop offset="0" stop-color="#3db5ff"/><stop offset="1" stop-color="#7d85ff"/></linearGradient><linearGradient id="e" x1="180.785" y1="194.418" x2="250.103" y2="194.418" gradientTransform="translate(17.51 -108.784) rotate(3.526)" xlink:href="#d"/></defs><g id="c"><path d="m9.991,266.477c-1.858,0-3.739-.518-5.417-1.604-4.639-2.996-5.97-9.186-2.973-13.826l53.747-83.186c1.975-3.055,5.492-4.791,9.082-4.549,3.629.248,6.838,2.449,8.377,5.746l23.338,49.984,23.529-18.602c4.037-3.189,9.834-2.795,13.402.904l16.182,16.793,37.947-78.602c2.399-4.973,8.373-7.06,13.354-4.658,4.975,2.402,7.059,8.381,4.658,13.353l-44.191,91.533c-1.424,2.947-4.197,5.01-7.428,5.527-3.227.516-6.51-.582-8.779-2.936l-19.854-20.605-26.332,20.818c-2.399,1.898-5.531,2.592-8.506,1.887-2.975-.703-5.463-2.73-6.756-5.5l-21.037-45.055-43.936,68c-1.912,2.961-5.127,4.574-8.408,4.574Z" style="fill:#fff; stroke-width:0px;"/><path d="m298.437,41.771C269.591-1.389,211.22-12.986,168.066,15.857c-43.158,28.848-54.76,87.217-25.912,130.373,26.961,40.338,79.713,53.098,121.732,31.039l32.643,48.84c3.07,4.596,9.289,5.832,13.885,2.762,4.6-3.072,5.836-9.293,2.764-13.889l-32.639-48.838c36.475-30.383,44.867-84.023,17.898-124.373Z" style="fill:url(#d); stroke-width:0px;"/><path d="m275.478,57.115c20.373,30.48,12.178,71.699-18.297,92.068-30.483,20.371-71.699,12.178-92.068-18.297-20.373-30.478-12.182-71.701,18.297-92.068,30.479-20.371,71.697-12.18,92.068,18.297Z" style="fill:#fff; stroke-width:0px;"/><path d="m342.011,237.094c4.889,7.316,2.904,17.305-4.412,22.193l-9.469,6.332c-7.316,4.889-17.305,2.904-22.193-4.412l-32.072-47.984c-4.891-7.316-2.904-17.303,4.412-22.193l9.467-6.328c7.316-4.891,17.305-2.904,22.193,4.412l32.074,47.98Z" style="fill:#fff; stroke-width:0px;"/><path d="m205.872,133.457c-1.457,0-2.94-.32-4.34-.996-4.975-2.402-7.059-8.381-4.658-13.353l15.891-32.912-14.191,2.076c-5.473.807-10.541-2.984-11.342-8.447-.072-.49-.107-.978-.107-1.461,0-4.881,3.58-8.897,8.555-9.626l32.838-4.55h.012c1.854-2,3.719-.261,5.379.45.686.297,1.34.54,1.947.981h0l.002-.063c1.018.742,1.9,1.648,2.59,2.752.105.17.207.327.303.501l15.141,27.412c2.67,4.834.914,10.914-3.92,13.584s-10.918.911-13.588-3.921l-5.822-10.544-15.674,32.463c-1.725,3.572-5.295,5.654-9.014,5.654Z" style="fill:url(#e); stroke-width:0px;"/></g></svg>