<?xml version="1.0" encoding="iso-8859-1"?>
<!-- Generator: Adobe Illustrator 16.0.0, SVG Export Plug-In . SVG Version: 6.00 Build 0)  -->
<!DOCTYPE svg PUBLIC "-//W3C//DTD SVG 1.1//EN" "http://www.w3.org/Graphics/SVG/1.1/DTD/svg11.dtd">
<svg version="1.1" id="Capa_1" xmlns="http://www.w3.org/2000/svg" xmlns:xlink="http://www.w3.org/1999/xlink" x="0px" y="0px"
	 width="64.919px" height="64.918px" viewBox="0 0 64.919 64.918" style="enable-background:new 0 0 64.919 64.918;"
	 xml:space="preserve">
<g>
	<g>
		<path d="M35.875,64.918h-6.832c-2.665,0-4.834-2.17-4.834-4.836v-7.414c-0.068-0.027-0.137-0.057-0.205-0.086l-5.242,5.242
			c-0.914,0.914-2.129,1.416-3.42,1.416s-2.506-0.502-3.418-1.416l-4.83-4.83c-1.885-1.885-1.885-4.951,0-6.836l5.242-5.242
			c-0.029-0.07-0.059-0.139-0.087-0.207H4.836c-2.666,0-4.835-2.17-4.836-4.834v-6.832c0.002-2.666,2.17-4.834,4.836-4.834h7.414
			c0.027-0.068,0.057-0.138,0.086-0.206l-5.244-5.243c-1.885-1.886-1.885-4.953,0-6.838l4.83-4.83
			c0.914-0.913,2.127-1.416,3.418-1.416c1.293,0,2.507,0.504,3.42,1.417l5.242,5.242c0.068-0.029,0.139-0.058,0.207-0.086V4.836
			C24.209,2.17,26.378,0,29.043,0h6.832c2.665,0,4.834,2.169,4.834,4.835v7.414c0.068,0.028,0.138,0.057,0.207,0.086l5.244-5.244
			c0.914-0.913,2.128-1.415,3.418-1.415c1.291,0,2.506,0.502,3.418,1.414l4.832,4.832c0.912,0.913,1.416,2.128,1.414,3.42
			c0,1.292-0.504,2.506-1.418,3.418l-5.242,5.243c0.029,0.068,0.059,0.137,0.086,0.205h7.416c2.666,0.002,4.834,2.169,4.835,4.833
			l-0.001,6.832c0,1.291-0.502,2.506-1.415,3.418c-0.913,0.914-2.126,1.416-3.417,1.416l0,0h-7.417
			c-0.028,0.07-0.058,0.139-0.087,0.207l5.244,5.244c1.884,1.885,1.885,4.951,0,6.838l-4.83,4.83
			c-0.914,0.912-2.127,1.416-3.418,1.416c-1.293,0-2.508-0.504-3.42-1.418l-5.242-5.242c-0.068,0.029-0.139,0.059-0.207,0.086v7.414
			C40.709,62.749,38.54,64.918,35.875,64.918z M23.576,48.182c0.305,0,0.611,0.07,0.896,0.214c0.789,0.396,1.584,0.729,2.365,0.985
			c0.818,0.271,1.371,1.037,1.371,1.898v8.803c0,0.461,0.375,0.836,0.834,0.836h6.832c0.459,0,0.834-0.375,0.834-0.836V51.28
			c0-0.861,0.553-1.627,1.371-1.898c0.782-0.26,1.579-0.592,2.364-0.985c0.771-0.39,1.703-0.236,2.313,0.372l6.229,6.229
			c0.213,0.214,0.461,0.246,0.592,0.246c0.129,0,0.377-0.032,0.59-0.244l4.83-4.829c0.324-0.326,0.324-0.855-0.001-1.183
			l-6.229-6.229c-0.609-0.609-0.76-1.541-0.373-2.312c0.396-0.787,0.729-1.584,0.987-2.367c0.271-0.817,1.036-1.371,1.897-1.371
			h8.805c0.301,0,0.499-0.151,0.59-0.243c0.092-0.093,0.244-0.289,0.244-0.591l0.001-6.83c0-0.461-0.376-0.836-0.837-0.836h-8.803
			c-0.861,0-1.627-0.551-1.897-1.369c-0.261-0.785-0.593-1.582-0.987-2.365c-0.387-0.771-0.236-1.702,0.373-2.313l6.23-6.231
			c0.213-0.213,0.244-0.461,0.244-0.59s-0.031-0.377-0.243-0.59L50.168,9.92c-0.211-0.212-0.46-0.243-0.59-0.243
			c-0.129,0-0.379,0.031-0.592,0.244l-6.229,6.23c-0.61,0.609-1.542,0.762-2.313,0.372c-0.783-0.395-1.58-0.727-2.362-0.986
			c-0.818-0.271-1.371-1.036-1.371-1.898V4.836C36.71,4.375,36.335,4,35.876,4h-6.832c-0.459,0-0.834,0.375-0.834,0.835v8.803
			c0,0.862-0.553,1.627-1.371,1.898c-0.783,0.26-1.579,0.592-2.365,0.987c-0.77,0.389-1.703,0.236-2.313-0.373l-6.229-6.229
			c-0.214-0.213-0.462-0.245-0.592-0.245c-0.129,0-0.377,0.032-0.59,0.244l-4.83,4.83c-0.325,0.325-0.324,0.855,0.001,1.182
			l6.229,6.229c0.609,0.609,0.76,1.541,0.373,2.311c-0.396,0.789-0.729,1.585-0.988,2.367c-0.271,0.818-1.035,1.371-1.897,1.371
			H4.836C4.375,28.211,4,28.583,4,29.045v6.83c0,0.462,0.375,0.837,0.836,0.837h8.802c0.862,0,1.626,0.551,1.897,1.368
			c0.262,0.785,0.594,1.582,0.988,2.367c0.387,0.771,0.236,1.703-0.373,2.313l-6.229,6.229c-0.324,0.326-0.325,0.855,0,1.18
			l4.83,4.83c0.212,0.213,0.461,0.244,0.59,0.244c0.13,0,0.379-0.031,0.592-0.244l6.229-6.229
			C22.545,48.385,23.057,48.182,23.576,48.182z M32.459,42c-5.261,0-9.541-4.281-9.541-9.541c0-5.262,4.28-9.542,9.541-9.542
			c5.261,0,9.541,4.28,9.541,9.542C42,37.719,37.719,42,32.459,42z M32.459,26.919c-3.055,0-5.541,2.484-5.541,5.541
			c0,3.055,2.486,5.541,5.541,5.541C35.514,38,38,35.514,38,32.459C38,29.404,35.513,26.919,32.459,26.919z"/>
	</g>
</g>
<g>
</g>
<g>
</g>
<g>
</g>
<g>
</g>
<g>
</g>
<g>
</g>
<g>
</g>
<g>
</g>
<g>
</g>
<g>
</g>
<g>
</g>
<g>
</g>
<g>
</g>
<g>
</g>
<g>
</g>
</svg>
