<?xml version="1.0" encoding="utf-8"?>
<!-- Generator: Adobe Illustrator 23.0.3, SVG Export Plug-In . SVG Version: 6.00 Build 0)  -->
<svg version="1.1" id="레이어_1" xmlns="http://www.w3.org/2000/svg" xmlns:xlink="http://www.w3.org/1999/xlink" x="0px"
	 y="0px" viewBox="0 0 768 768" style="enable-background:new 0 0 768 768;" xml:space="preserve">
<style type="text/css">
	.st0{fill:#000002;}
</style>
<path class="st0" d="M712.5,300.9c-21.4,0-40.4-12.5-48.3-31.7c-8.1-19.8-2.8-42.8,13-57.3c17.9-16.4,20.2-44.2,5.2-63.3
	c-17.8-22.7-38.1-43.2-60.3-60.9c-8.2-6.6-18.6-10.2-29.1-10.2c-13.2,0-25.8,5.6-34.6,15.4c-9.1,10.1-24.3,16.4-39.6,16.4
	c-6.5,0-12.8-1.2-18.1-3.4c-20-8.4-32.5-28.7-31.3-50.3c1.5-24.6-16.6-46.2-41.2-49c-28.4-3.3-57.3-3.4-85.6-0.2
	C318.4,9,300.2,30,301,54.3c0.8,21.6-12,41.5-31.7,49.6c-5.2,2.1-11.4,3.3-17.7,3.3c-15.3,0-30.5-6.3-39.7-16.4
	c-8.8-9.7-21.4-15.2-34.5-15.2c-10.3,0-20.5,3.5-28.8,9.9c-22.9,17.9-43.6,38.4-61.6,60.9c-15.4,19.2-13.2,47.1,5,63.7
	c16.1,14.6,21.4,37.9,13,57.8c-7.9,18.9-28.2,31.2-51.8,31.3C28.8,298.6,8.8,316,5.9,340.3c-3.3,28.5-3.4,57.7-0.2,86.5
	c2.9,25.5,28.2,41.4,50,41.4l1.8,0c19.7,0,38.2,12.8,46,31.7c8.1,19.7,2.8,42.8-13.1,57.4c-17.9,16.4-20.1,44.2-5.1,63.1
	c17.6,22.4,37.9,43,60.2,61c8.3,6.6,18.6,10.3,29.2,10.3c13.1,0,25.7-5.6,34.6-15.4c9.2-10.2,24.4-16.5,39.6-16.5
	c6.5,0,12.7,1.2,18.1,3.5c20,8.4,32.6,28.6,31.3,50.3c-1.5,24.7,16.6,46.2,41.1,49c14.4,1.7,29.2,2.5,43.9,2.5
	c13.9,0,28-0.8,41.8-2.3c24.1-2.7,42.3-23.7,41.5-48c-0.8-21.5,11.9-41.4,31.6-49.5c5.3-2.2,11.5-3.3,17.8-3.3
	c15.2,0,30.4,6.3,39.7,16.5c8.8,9.6,21.4,15.1,34.4,15.1c10.3,0,20.5-3.5,28.8-9.9c22.7-17.8,43.5-38.3,61.6-60.9
	c15.4-19.2,13.3-47.2-5-63.8c-16.2-14.6-21.4-37.9-13-57.8c7.8-18.7,26.7-31.3,47.2-31.4l3.4,0.1c0.9,0.1,1.8,0.1,2.8,0.1h0
	c23.5,0,43.2-17.7,46-41.2c3.4-28.6,3.4-57.7,0.2-86.6C759.2,316.7,734.1,300.9,712.5,300.9z M709,416
	c-41.6,0.4-80.2,26.2-96.2,64.5c-16.3,38.8-7.6,83.7,21.6,113.8c-13.2,15.7-27.8,30.2-43.5,43c-19.3-18.3-46.7-29.1-74.7-29.1
	c-13.5,0-26.3,2.5-38.2,7.3c-38.4,15.7-64,53.2-65.1,94.5c-20.1,1.8-40.4,1.8-60.4-0.2c-0.4-41.8-25.6-79.9-64.5-96.2
	c-12.1-5.1-25.2-7.6-39-7.6c-28,0-55.5,10.8-74.8,29.2c-15.5-13-29.7-27.4-42.4-43c28.6-29.9,37.3-74.3,21.6-112.8
	c-15.9-38.6-53.9-64.7-94.8-65.2c-1.9-20.5-1.8-41.1,0.1-61.4c43.1-2,80.4-26.7,96.1-64.2c16.3-38.9,7.6-83.7-21.5-113.8
	c13.1-15.6,27.7-30.1,43.5-43c19.3,18.3,46.7,29.1,74.8,29.1c13.5,0,26.3-2.5,38.1-7.3c38.4-15.7,63.9-53.2,65.2-94.5
	c20-1.8,40.3-1.8,60.4,0.1c0.4,41.8,25.6,79.9,64.5,96.2c12.1,5,25.2,7.6,38.9,7.6c28.1,0,55.5-10.8,74.8-29.2
	c15.4,12.8,29.6,27.2,42.5,42.9c-28.6,29.8-37.3,74.3-21.6,112.7c15.8,38.6,52.8,63.8,94.8,65.1C711,375.2,711,395.8,709,416z"/>
<path class="st0" d="M384.4,240.4c-79.9,0-144.9,65-144.9,144.9s65,144.9,144.9,144.9c79.9,0,144.9-65,144.9-144.9
	C529.3,305.4,464.3,240.4,384.4,240.4z M384.4,476.3c-50.2,0-91-40.8-91-91c0-50.2,40.8-91,91-91s91,40.8,91,91
	C475.4,435.5,434.6,476.3,384.4,476.3z"/>
</svg>
